<svg width="12" height="9" viewBox="0 0 12 9" fill="none" xmlns="http://www.w3.org/2000/svg">
<path d="M3.57512 6.175L9.47512 0.275C9.65845 0.0916663 9.89179 0 10.1751 0C10.4585 0 10.6918 0.0916663 10.8751 0.275C11.0585 0.458333 11.1501 0.691666 11.1501 0.974999C11.1501 1.25833 11.0585 1.49167 10.8751 1.675L4.27512 8.275C4.07512 8.475 3.84179 8.575 3.57512 8.575C3.30846 8.575 3.07512 8.475 2.87512 8.275L0.275122 5.675C0.0917884 5.49167 0.00012207 5.25833 0.00012207 4.975C0.00012207 4.69167 0.0917884 4.45833 0.275122 4.275C0.458455 4.09167 0.691789 4 0.975122 4C1.25846 4 1.49179 4.09167 1.67512 4.275L3.57512 6.175Z" fill="#1F1F1F"/>
</svg>
